<svg width="67" height="68" viewBox="0 0 67 68" fill="none" xmlns="http://www.w3.org/2000/svg">
<path d="M0.499512 15.9268H0.999512C3.63731 15.9268 6.25117 15.4393 8.70947 14.4912L9.19971 14.2959C11.6368 13.2864 13.8645 11.8353 15.7729 10.0186L16.1509 9.65039C18.0159 7.78529 19.5196 5.59304 20.5874 3.18457L20.7954 2.69922C21.8721 0.0997357 22.4263 -2.68636 22.4263 -5.5V-6H15.5669V-5.5C15.5669 -3.5872 15.1904 -1.693 14.4585 0.0742188L14.3169 0.404297C13.5909 2.04186 12.5684 3.5327 11.3003 4.80078L11.0435 5.05078C9.74611 6.28577 8.23142 7.27173 6.57471 7.95801L6.2417 8.09082C4.57025 8.73549 2.79302 9.06738 0.999512 9.06738H0.499512V15.9268Z" fill="white" stroke="#ADADAC"/>
<path d="M37.4995 9.07324H36.9995C34.3617 9.07324 31.7479 9.56074 29.2896 10.5088L28.7993 10.7041C26.3622 11.7136 24.1345 13.1647 22.2261 14.9814L21.8481 15.3496C19.9831 17.2147 18.4795 19.407 17.4116 21.8154L17.2036 22.3008C16.1269 24.9003 15.5728 27.6864 15.5728 30.5V31H22.4321V30.5C22.4321 28.5872 22.8086 26.693 23.5405 24.9258L23.6821 24.5957C24.4082 22.9581 25.4306 21.4673 26.6987 20.1992L26.9556 19.9492C28.2529 18.7142 29.7676 17.7283 31.4243 17.042L31.7573 16.9092C33.4288 16.2645 35.206 15.9326 36.9995 15.9326H37.4995V9.07324Z" fill="white" stroke="#ADADAC"/>
<path d="M37.4995 15.9268H36.9995C34.3617 15.9268 31.7479 15.4393 29.2896 14.4912L28.7993 14.2959C26.3622 13.2864 24.1345 11.8353 22.2261 10.0186L21.8481 9.65039C19.9831 7.78529 18.4795 5.59304 17.4116 3.18457L17.2036 2.69922C16.1269 0.0997357 15.5728 -2.68636 15.5728 -5.5V-6H22.4321V-5.5C22.4321 -3.5872 22.8086 -1.693 23.5405 0.0742188L23.6821 0.404297C24.4082 2.04186 25.4306 3.5327 26.6987 4.80078L26.9556 5.05078C28.2529 6.28577 29.7676 7.27173 31.4243 7.95801L31.7573 8.09082C33.4288 8.73549 35.206 9.06738 36.9995 9.06738H37.4995V15.9268Z" fill="white" stroke="#ADADAC"/>
<path d="M0.499512 9.07324H0.999512C3.63731 9.07324 6.25117 9.56074 8.70947 10.5088L9.19971 10.7041C11.6368 11.7136 13.8645 13.1647 15.7729 14.9814L16.1509 15.3496C18.0159 17.2147 19.5196 19.407 20.5874 21.8154L20.7954 22.3008C21.8721 24.9003 22.4263 27.6864 22.4263 30.5V31H15.5669V30.5C15.5669 28.5872 15.1904 26.693 14.4585 24.9258L14.3169 24.5957C13.5909 22.9581 12.5684 21.4673 11.3003 20.1992L11.0435 19.9492C9.74611 18.7142 8.23142 17.7283 6.57471 17.042L6.2417 16.9092C4.57025 16.2645 2.79302 15.9326 0.999512 15.9326H0.499512V9.07324Z" fill="white" stroke="#ADADAC"/>
<path d="M36.499 15.9268H36.999C39.6368 15.9268 42.2507 15.4393 44.709 14.4912L45.1992 14.2959C47.6363 13.2864 49.8641 11.8353 51.7725 10.0186L52.1504 9.65039C54.0154 7.78529 55.5191 5.59304 56.5869 3.18457L56.7949 2.69922C57.8716 0.0997357 58.4258 -2.68636 58.4258 -5.5V-6H51.5664V-5.5C51.5664 -3.5872 51.1899 -1.693 50.458 0.0742188L50.3164 0.404297C49.5904 2.04186 48.5679 3.5327 47.2998 4.80078L47.043 5.05078C45.7456 6.28577 44.2309 7.27173 42.5742 7.95801L42.2412 8.09082C40.5698 8.73549 38.7925 9.06738 36.999 9.06738H36.499V15.9268Z" fill="white" stroke="#ADADAC"/>
<path d="M73.499 9.07324H72.999C70.3612 9.07324 67.7474 9.56074 65.2891 10.5088L64.7988 10.7041C62.3617 11.7136 60.134 13.1647 58.2256 14.9814L57.8477 15.3496C55.9826 17.2147 54.479 19.407 53.4111 21.8154L53.2031 22.3008C52.1264 24.9003 51.5723 27.6864 51.5723 30.5V31H58.4316V30.5C58.4316 28.5872 58.8081 26.693 59.54 24.9258L59.6816 24.5957C60.4077 22.9581 61.4302 21.4673 62.6982 20.1992L62.9551 19.9492C64.2524 18.7142 65.7671 17.7283 67.4238 17.042L67.7568 16.9092C69.4283 16.2645 71.2055 15.9326 72.999 15.9326H73.499V9.07324Z" fill="white" stroke="#ADADAC"/>
<path d="M73.499 15.9268H72.999C70.3612 15.9268 67.7474 15.4393 65.2891 14.4912L64.7988 14.2959C62.3617 13.2864 60.134 11.8353 58.2256 10.0186L57.8477 9.65039C55.9826 7.78529 54.479 5.59304 53.4111 3.18457L53.2031 2.69922C52.1264 0.0997357 51.5723 -2.68636 51.5723 -5.5V-6H58.4316V-5.5C58.4316 -3.5872 58.8081 -1.693 59.54 0.0742188L59.6816 0.404297C60.4077 2.04186 61.4302 3.5327 62.6982 4.80078L62.9551 5.05078C64.2524 6.28577 65.7671 7.27173 67.4238 7.95801L67.7568 8.09082C69.4283 8.73549 71.2055 9.06738 72.999 9.06738H73.499V15.9268Z" fill="white" stroke="#ADADAC"/>
<path d="M36.499 9.07324H36.999C39.6368 9.07324 42.2507 9.56074 44.709 10.5088L45.1992 10.7041C47.6363 11.7136 49.8641 13.1647 51.7725 14.9814L52.1504 15.3496C54.0154 17.2147 55.5191 19.407 56.5869 21.8154L56.7949 22.3008C57.8716 24.9003 58.4258 27.6864 58.4258 30.5V31H51.5664V30.5C51.5664 28.5872 51.1899 26.693 50.458 24.9258L50.3164 24.5957C49.5904 22.9581 48.5679 21.4673 47.2998 20.1992L47.043 19.9492C45.7456 18.7142 44.2309 17.7283 42.5742 17.042L42.2412 16.9092C40.5698 16.2645 38.7925 15.9326 36.999 15.9326H36.499V9.07324Z" fill="white" stroke="#ADADAC"/>
<path d="M36.499 51.9268H36.999C39.6368 51.9268 42.2507 51.4393 44.709 50.4912L45.1992 50.2959C47.6363 49.2864 49.8641 47.8353 51.7725 46.0186L52.1504 45.6504C54.0154 43.7853 55.5191 41.593 56.5869 39.1846L56.7949 38.6992C57.8716 36.0997 58.4258 33.3136 58.4258 30.5V30H51.5664V30.5C51.5664 32.4128 51.1899 34.307 50.458 36.0742L50.3164 36.4043C49.5904 38.0419 48.5679 39.5327 47.2998 40.8008L47.043 41.0508C45.7456 42.2858 44.2309 43.2717 42.5742 43.958L42.2412 44.0908C40.5698 44.7355 38.7925 45.0674 36.999 45.0674H36.499V51.9268Z" fill="white" stroke="#ADADAC"/>
<path d="M73.499 45.0732H72.999C70.3612 45.0732 67.7474 45.5607 65.2891 46.5088L64.7988 46.7041C62.3617 47.7136 60.134 49.1647 58.2256 50.9814L57.8477 51.3496C55.9826 53.2147 54.479 55.407 53.4111 57.8154L53.2031 58.3008C52.1264 60.9003 51.5723 63.6864 51.5723 66.5V67H58.4316V66.5C58.4316 64.5872 58.8081 62.693 59.54 60.9258L59.6816 60.5957C60.4077 58.9581 61.4302 57.4673 62.6982 56.1992L62.9551 55.9492C64.2524 54.7142 65.7671 53.7283 67.4238 53.042L67.7568 52.9092C69.4283 52.2645 71.2055 51.9326 72.999 51.9326H73.499V45.0732Z" fill="white" stroke="#ADADAC"/>
<path d="M73.499 51.9268H72.999C70.3612 51.9268 67.7474 51.4393 65.2891 50.4912L64.7988 50.2959C62.3617 49.2864 60.134 47.8353 58.2256 46.0186L57.8477 45.6504C55.9826 43.7853 54.479 41.593 53.4111 39.1846L53.2031 38.6992C52.1264 36.0997 51.5723 33.3136 51.5723 30.5V30H58.4316V30.5C58.4316 32.4128 58.8081 34.307 59.54 36.0742L59.6816 36.4043C60.4077 38.0419 61.4302 39.5327 62.6982 40.8008L62.9551 41.0508C64.2524 42.2858 65.7671 43.2717 67.4238 43.958L67.7568 44.0908C69.4283 44.7355 71.2055 45.0674 72.999 45.0674H73.499V51.9268Z" fill="white" stroke="#ADADAC"/>
<path d="M36.499 45.0732H36.999C39.6368 45.0732 42.2507 45.5607 44.709 46.5088L45.1992 46.7041C47.6363 47.7136 49.8641 49.1647 51.7725 50.9814L52.1504 51.3496C54.0154 53.2147 55.5191 55.407 56.5869 57.8154L56.7949 58.3008C57.8716 60.9003 58.4258 63.6864 58.4258 66.5V67H51.5664V66.5C51.5664 64.5872 51.1899 62.693 50.458 60.9258L50.3164 60.5957C49.5904 58.9581 48.5679 57.4673 47.2998 56.1992L47.043 55.9492C45.7456 54.7142 44.2309 53.7283 42.5742 53.042L42.2412 52.9092C40.5698 52.2645 38.7925 51.9326 36.999 51.9326H36.499V45.0732Z" fill="white" stroke="#ADADAC"/>
</svg>
