<svg width="136" height="16" viewBox="0 0 136 16" fill="none" xmlns="http://www.w3.org/2000/svg">
<path d="M9.7096 7.70759V7.62175C11.6465 7.23409 13.0034 6.02818 13.0034 4.15493C13.0034 2.45474 11.9276 1.31252 10.4849 0.775328C9.55869 0.430584 8.59091 0.322592 7.49299 0.322592H0.236752V0.537192C1.01208 0.623032 1.35682 0.731024 1.78741 1.18376C2.13215 1.54927 2.19584 2.7981 2.21799 3.81018C2.24014 5.53252 2.24014 6.2857 2.24014 8.00803C2.24014 9.57946 2.21799 11.6673 2.19722 12.4648C2.17507 13.391 2.08923 14.446 1.80956 14.7894C1.42051 15.2421 0.710256 15.501 0 15.609V15.8236H7.42792C8.67675 15.8236 10.1194 15.8015 11.2173 15.393C12.4869 14.9195 13.8867 13.6278 13.8867 11.5828C13.8867 9.27902 11.7988 7.94434 9.7096 7.70759ZM4.62843 2.28168C4.67135 1.22668 4.6935 1.11869 4.75719 0.753176C5.0161 0.667336 5.53252 0.602264 6.13478 0.602264C7.12471 0.602264 7.98588 0.753176 8.6103 1.03285C9.70822 1.50635 10.5265 2.73303 10.5265 4.15493C10.5265 6.11402 9.16964 7.55668 6.58614 7.70759C6.19847 7.72974 5.53114 7.72974 4.58413 7.72974C4.58413 7.47084 4.56198 4.28507 4.62705 2.28306L4.62843 2.28168ZM9.47285 14.9624C8.54661 15.436 7.51376 15.501 6.69551 15.501C5.72635 15.501 5.25285 15.2643 4.99533 14.9417C4.65058 14.4889 4.62982 13.8008 4.60766 12.7237C4.58551 11.7767 4.58551 9.90343 4.58551 8.05234H6.67336C7.49161 8.05234 8.0731 8.11741 8.69752 8.31124C10.226 8.8069 11.3669 10.1845 11.3669 11.821C11.3669 13.2636 10.6566 14.3394 9.47285 14.9638V14.9624ZM24.672 0.107992C20.1724 0.107992 16.3622 3.09993 16.3622 8.05234C16.3622 12.6808 20.0215 15.9745 24.3924 15.9745C28.7633 15.9745 32.5084 12.552 32.5084 7.96511C32.5084 3.83095 29.5594 0.106608 24.672 0.106608V0.107992ZM24.4782 15.609C20.8397 15.609 19.0315 12.0134 19.0315 8.11741C19.0315 4.22139 20.668 0.473504 24.4145 0.473504C28.161 0.473504 29.8404 4.49967 29.8404 7.98726C29.8404 11.4749 28.0752 15.609 24.4796 15.609H24.4782ZM44.3931 8.6546C45.1892 8.71967 45.7928 8.93427 46.1376 9.32194C46.6111 9.83836 46.654 10.6566 46.654 11.6687C46.654 12.6808 46.546 13.7565 46.3092 14.1234C45.6198 15.1784 44.328 15.6312 42.9726 15.6312C39.1402 15.6312 36.9222 12.5742 36.9222 8.09664C36.9222 4.02755 39.269 0.389049 43.0792 0.389049C44.8444 0.389049 46.33 1.05638 47.2563 2.02554C47.9665 2.77872 48.6768 4.00679 48.9786 5.27639H49.2375V0.581496H49.0437C48.6782 1.07715 48.3763 1.46482 48.3334 1.46482C48.2046 1.46482 46.3965 0.0221522 42.9296 0.0221522C40.0665 0.0221522 38.1074 0.92624 36.7298 2.26091C34.7485 4.17708 34.275 6.60967 34.275 8.05234C34.275 12.9604 37.5051 15.9745 42.9518 15.9745C45.707 15.9745 48.6781 14.4682 49.088 14.1442V11.0014C49.088 10.3562 49.088 9.58084 49.2818 9.27902C49.5407 8.87058 50.208 8.71967 50.7023 8.6546V8.44H44.3945V8.6546H44.3931ZM65.7492 14.2314C65.4045 13.499 65.1677 13.0047 64.8451 12.1214L60.3247 0.0221522H60.153C59.9163 0.430584 59.2918 1.35682 58.259 1.80956L58.4736 2.28306C57.1168 5.51314 55.2657 9.88266 54.039 12.5949C53.3717 14.0584 52.8982 14.77 52.7043 14.9624C52.6185 15.0704 51.9941 15.501 51.2409 15.5869V15.8236H55.8693V15.609C55.1161 15.5232 54.0819 15.3293 54.0819 14.5762C54.0819 14.2965 54.2328 13.715 54.5346 12.9397C54.9223 11.9276 55.3307 10.9584 55.7613 9.88266H61.4877C62.3488 12.1436 63.0383 14.1234 63.0383 14.6191C63.0383 15.4373 61.7244 15.5882 61.5306 15.609V15.8236H67.8177V15.5647C66.5038 15.5218 65.8794 14.4876 65.7506 14.23L65.7492 14.2314ZM55.9538 9.42993C57.3106 6.05033 58.3864 3.55266 58.709 2.77734C59.2254 4.06909 60.3455 6.86719 61.3146 9.42993H55.9538ZM83.8116 4.30584L83.1221 0.107992C82.4548 0.301824 81.9383 0.452736 80.9913 0.473504C78.8163 0.495656 77.7405 0.516424 75.6083 0.516424C73.4762 0.516424 72.4004 0.516424 70.2253 0.473504C69.1496 0.451352 68.7619 0.365512 68.0946 0.2146L67.4051 4.30446L67.5989 4.36953C68.0517 3.33668 68.8907 2.13077 69.3434 1.70018C69.9457 1.14084 70.5922 0.924856 71.668 0.904088C72.7659 0.881936 73.1744 0.881936 74.4024 0.881936V8.00803C74.4024 9.57946 74.3803 11.5815 74.3595 12.3789C74.3374 13.3052 74.3374 14.381 74.0577 14.6828C73.4125 15.4152 72.723 15.5218 71.9698 15.609V15.8236H78.9672V15.609C78.3428 15.501 77.4165 15.3293 76.9859 14.7049C76.7713 14.4031 76.7492 13.5212 76.7492 12.7029V7.92358C76.7492 6.15832 76.7492 2.34814 76.7713 0.88332C78.0409 0.88332 78.4078 0.88332 79.5058 0.905473C80.5815 0.927625 81.2281 1.07715 81.8303 1.63788C82.2831 2.06846 83.165 3.33806 83.6178 4.3723L83.8116 4.30722V4.30584ZM97.8492 14.2314C97.5044 13.499 97.2677 13.0047 96.9451 12.1214L92.4233 0.0221522H92.2516C92.0148 0.430584 91.3904 1.35682 90.3576 1.80956L90.5722 2.28306C89.2153 5.51314 87.3643 9.88266 86.1376 12.5949C85.4702 14.0584 84.9967 14.77 84.8029 14.9624C84.7171 15.0704 84.0926 15.501 83.3395 15.5869V15.8236H87.9679V15.609C87.2147 15.5232 86.1805 15.3293 86.1805 14.5762C86.1805 14.2965 86.3314 13.715 86.6332 12.9397C87.0209 11.9276 87.4293 10.9584 87.8599 9.88266H93.5863C94.4474 12.1436 95.1369 14.1234 95.1369 14.6191C95.1369 15.4373 93.823 15.5882 93.6292 15.609V15.8236H99.9163V15.5647C98.6024 15.5218 97.9793 14.4876 97.8492 14.23V14.2314ZM88.0537 9.42993C89.4106 6.05033 90.4863 3.55266 90.8089 2.77734C91.3254 4.06909 92.4454 6.86719 93.4146 9.42993H88.0537ZM114.189 1.50635C114.06 1.50635 112.403 0 108.936 0C105.169 0 102.865 1.72234 101.639 3.68142C100.584 5.33869 100.369 7.0181 100.369 8.03018C100.369 12.6586 103.706 15.9524 109.067 15.9524C112.274 15.9524 114.04 14.5097 114.148 14.5097C114.276 14.5097 114.729 14.9832 115.074 15.4789H115.333L115.398 10.7424H115.139C114.6 13.218 112.254 15.5647 109.283 15.5647C105.472 15.5647 103.018 12.2917 103.018 8.13679C103.018 4.26154 105.278 0.364127 109.24 0.364127C112.125 0.364127 114.384 2.55997 115.16 5.31654L115.419 5.29438V0.473504H115.182C114.859 0.96916 114.299 1.50635 114.192 1.50635H114.189ZM133.523 14.7686C133.351 14.5097 133.329 13.7136 133.329 12.8954C133.307 10.8075 133.307 9.64453 133.307 7.53453V3.8531C133.307 3.01409 133.307 1.89402 133.521 1.48558C133.823 0.904088 134.576 0.624416 135.266 0.538576V0.323976H128.785V0.538576C129.431 0.560728 130.142 0.646568 130.658 1.4219C130.895 1.78741 130.895 2.45474 130.917 2.99332C130.96 4.86657 130.939 5.87865 130.939 7.72974H122.435C122.435 7.1704 122.413 4.26292 122.478 2.26091C122.521 0.92624 123.619 0.646568 124.437 0.538576V0.323976H118.022V0.538576C118.775 0.624416 119.356 0.818248 119.766 1.29175C120.089 1.67942 120.089 2.79949 120.089 3.81018V8.00803C120.089 9.57946 120.066 11.6673 120.046 12.4648C120.024 13.391 119.981 14.5319 119.744 14.8115C119.399 15.22 118.668 15.501 117.956 15.6076V15.8222H124.307V15.6076C123.705 15.5647 122.993 15.285 122.65 14.8115C122.435 14.5097 122.435 13.6056 122.435 12.7874V8.15894H130.939C130.939 8.76121 130.961 11.1509 130.917 13.0241C130.895 13.7136 130.874 14.6177 130.745 14.8115C130.508 15.177 129.755 15.5218 128.7 15.6076V15.8222H135.31V15.6076C134.557 15.5218 133.889 15.328 133.523 14.7686Z" fill="#231F20"/>
</svg>
